<svg width="331" height="233" viewBox="0 0 331 233" fill="none" xmlns="http://www.w3.org/2000/svg">
<path d="M280.423 102.054C273.191 45.0885 224.418 0.899963 165.5 0.899963C119.888 0.899963 80.2675 27.562 62.1784 69.5825C26.629 80.2076 0 113.771 0 149.85C0 195.478 37.1217 232.6 82.75 232.6H264.8C301.309 232.6 331 202.909 331 166.4C330.975 151.565 325.979 137.166 316.812 125.502C307.644 113.839 294.833 105.583 280.423 102.054Z" fill="black"/>
<mask id="mask0_1593_17" style="mask-type:alpha" maskUnits="userSpaceOnUse" x="0" y="0" width="331" height="233">
<path d="M280.423 102.054C273.191 45.0885 224.418 0.899963 165.5 0.899963C119.888 0.899963 80.2675 27.562 62.1784 69.5825C26.629 80.2076 0 113.771 0 149.85C0 195.478 37.1217 232.6 82.75 232.6H264.8C301.309 232.6 331 202.909 331 166.4C330.975 151.565 325.979 137.166 316.812 125.502C307.644 113.839 294.833 105.583 280.423 102.054Z" fill="black"/>
</mask>
<g mask="url(#mask0_1593_17)">
<g filter="url(#filter0_f_1593_17)">
<circle cx="175.334" cy="163.933" r="169.234" transform="rotate(-45 175.334 163.933)" fill="url(#paint0_linear_1593_17)"/>
</g>
<mask id="mask1_1593_17" style="mask-type:alpha" maskUnits="userSpaceOnUse" x="-5" y="-17" width="363" height="362">
<circle cx="176.448" cy="163.934" r="180.842" fill="#D9D9D9"/>
</mask>
<g mask="url(#mask1_1593_17)">
<circle cx="176.448" cy="163.934" r="180.842" transform="rotate(-45 176.448 163.934)" fill="url(#paint1_linear_1593_17)"/>
<path d="M255.848 42.1653C279.511 40.9252 302.958 47.208 322.831 60.1132L369.917 90.6914C389.789 103.597 405.066 122.462 413.557 144.583L433.677 196.998C442.169 219.119 443.439 243.36 437.307 266.248L422.776 320.479C416.643 343.367 403.422 363.725 385.007 378.637L341.375 413.969C322.961 428.881 300.298 437.58 276.636 438.821L220.569 441.759C196.906 442.999 173.459 436.716 153.586 423.811L106.5 393.233C86.6279 380.328 71.3513 361.463 62.8598 339.341L42.7395 286.926C34.248 264.805 32.9776 240.564 39.1103 217.676L53.6414 163.445C59.7741 140.558 72.9951 120.199 91.4096 105.287L135.042 69.9548C153.456 55.0431 176.119 46.3437 199.781 45.1036L255.848 42.1653Z" fill="white" fill-opacity="0.32"/>
<path d="M302.286 89.3057C325.949 88.0656 349.396 94.3484 369.269 107.254L416.355 137.832C436.227 150.737 451.504 169.602 459.995 191.723L480.116 244.138C488.607 266.259 489.878 290.501 483.745 313.388L469.214 367.619C463.081 390.507 449.86 410.866 431.446 425.777L387.814 461.11C369.399 476.022 346.737 484.721 323.074 485.961L267.007 488.899C243.345 490.139 219.897 483.857 200.025 470.951L152.938 440.373C133.066 427.468 117.789 408.603 109.298 386.482L89.1777 334.067C80.6862 311.946 79.4157 287.704 85.5484 264.817L100.08 210.586C106.212 187.698 119.433 167.339 137.848 152.428L181.48 117.095C199.894 102.184 222.557 93.4842 246.219 92.2441L302.286 89.3057Z" fill="white" fill-opacity="0.32"/>
<path d="M344.447 139.562C368.109 138.322 391.557 144.605 411.429 157.51L458.515 188.088C478.388 200.994 493.664 219.859 502.156 241.98L522.276 294.395C530.767 316.516 532.038 340.757 525.905 363.645L511.374 417.876C505.241 440.764 492.02 461.122 473.606 476.034L429.974 511.366C411.559 526.278 388.897 534.977 365.234 536.218L309.167 539.156C285.505 540.396 262.057 534.113 242.185 521.208L195.099 490.63C175.226 477.725 159.95 458.86 151.458 436.738L131.338 384.323C122.846 362.202 121.576 337.961 127.709 315.073L142.24 260.842C148.373 237.955 161.594 217.596 180.008 202.684L223.64 167.352C242.054 152.44 264.717 143.741 288.379 142.501L344.447 139.562Z" fill="white" fill-opacity="0.32"/>
<path d="M384.646 190.594C408.308 189.354 431.756 195.637 451.628 208.542L498.715 239.12C518.587 252.025 533.864 270.89 542.355 293.012L562.475 345.426C570.967 367.548 572.237 391.789 566.105 414.677L551.573 468.908C545.441 491.795 532.22 512.154 513.805 527.066L470.173 562.398C451.759 577.31 429.096 586.009 405.434 587.249L349.367 590.188C325.704 591.428 302.257 585.145 282.384 572.24L235.298 541.662C215.426 528.756 200.149 509.891 191.658 487.77L171.537 435.355C163.046 413.234 161.775 388.992 167.908 366.105L182.439 311.874C188.572 288.986 201.793 268.628 220.207 253.716L263.839 218.383C282.254 203.472 304.916 194.772 328.579 193.532L384.646 190.594Z" fill="white" fill-opacity="0.32"/>
</g>
</g>
<defs>
<filter id="filter0_f_1593_17" x="-213.185" y="-224.586" width="777.038" height="777.038" filterUnits="userSpaceOnUse" color-interpolation-filters="sRGB">
<feFlood flood-opacity="0" result="BackgroundImageFix"/>
<feBlend mode="normal" in="SourceGraphic" in2="BackgroundImageFix" result="shape"/>
<feGaussianBlur stdDeviation="109.642" result="effect1_foregroundBlur_1593_17"/>
</filter>
<linearGradient id="paint0_linear_1593_17" x1="344.568" y1="-5.30086" x2="18.4392" y2="-5.30086" gradientUnits="userSpaceOnUse">
<stop stop-color="#5F37FF"/>
<stop offset="0.510417" stop-color="#1584FF"/>
<stop offset="1" stop-color="#3EF3FF"/>
</linearGradient>
<linearGradient id="paint1_linear_1593_17" x1="357.29" y1="-16.9077" x2="8.79288" y2="-16.9077" gradientUnits="userSpaceOnUse">
<stop stop-color="#5F37FF"/>
<stop offset="0.510417" stop-color="#1584FF"/>
<stop offset="1" stop-color="#3EF3FF"/>
</linearGradient>
</defs>
</svg>
