<svg width="1398" height="216" viewBox="0 0 1398 216" fill="none" xmlns="http://www.w3.org/2000/svg">
<path d="M1340.3 215H57.7C26.4 215 1 189.6 1 158.3V57.9C1 26.6 26.4 1.19995 57.7 1.19995H1340.3C1371.6 1.19995 1397 26.6 1397 57.9V158.3C1397 189.6 1371.6 215 1340.3 215Z" fill="white" stroke="#C7C6C6" stroke-width="0.8678" stroke-miterlimit="10"/>
<path d="M496.139 90.6894C495.853 88.2756 494.694 86.4018 492.661 85.0679C490.629 83.734 488.136 83.067 485.182 83.067C483.022 83.067 481.133 83.4164 479.513 84.1151C477.909 84.8138 476.654 85.7745 475.749 86.9973C474.86 88.2201 474.415 89.6096 474.415 91.1658C474.415 92.468 474.725 93.5875 475.344 94.5244C475.979 95.4454 476.789 96.2156 477.774 96.8349C478.758 97.4384 479.791 97.9386 480.871 98.3356C481.95 98.7167 482.943 99.0264 483.848 99.2646L488.803 100.599C490.073 100.932 491.486 101.392 493.043 101.98C494.615 102.568 496.115 103.37 497.544 104.386C498.99 105.386 500.181 106.673 501.117 108.245C502.054 109.817 502.523 111.746 502.523 114.033C502.523 116.669 501.832 119.051 500.451 121.179C499.085 123.307 497.084 124.998 494.448 126.253C491.828 127.507 488.644 128.134 484.896 128.134C481.402 128.134 478.377 127.571 475.821 126.443C473.28 125.316 471.279 123.744 469.818 121.727C468.373 119.71 467.555 117.368 467.365 114.7H473.462C473.621 116.542 474.241 118.066 475.32 119.273C476.416 120.464 477.798 121.354 479.465 121.941C481.148 122.513 482.959 122.799 484.896 122.799C487.151 122.799 489.176 122.433 490.97 121.703C492.765 120.957 494.186 119.924 495.234 118.606C496.282 117.272 496.806 115.716 496.806 113.938C496.806 112.318 496.353 111 495.448 109.984C494.543 108.967 493.352 108.141 491.875 107.506C490.398 106.871 488.803 106.315 487.088 105.839L481.085 104.124C477.274 103.028 474.256 101.464 472.033 99.4313C469.81 97.3987 468.699 94.7388 468.699 91.4516C468.699 88.7203 469.437 86.3383 470.914 84.3057C472.406 82.2571 474.407 80.6691 476.916 79.5417C479.441 78.3983 482.26 77.8266 485.372 77.8266C488.517 77.8266 491.312 78.3904 493.757 79.5178C496.203 80.6294 498.14 82.1539 499.569 84.0913C501.014 86.0286 501.776 88.228 501.856 90.6894H496.139ZM511.473 127.277V90.6894H517.095V127.277H511.473ZM514.332 84.5915C513.236 84.5915 512.291 84.2183 511.497 83.472C510.719 82.7256 510.33 81.8284 510.33 80.7803C510.33 79.7322 510.719 78.835 511.497 78.0886C512.291 77.3423 513.236 76.9691 514.332 76.9691C515.427 76.9691 516.364 77.3423 517.142 78.0886C517.936 78.835 518.333 79.7322 518.333 80.7803C518.333 81.8284 517.936 82.7256 517.142 83.472C516.364 84.2183 515.427 84.5915 514.332 84.5915ZM542.159 141.759C539.444 141.759 537.109 141.41 535.156 140.711C533.203 140.028 531.575 139.123 530.273 137.996C528.987 136.884 527.963 135.693 527.2 134.423L531.678 131.279C532.187 131.946 532.83 132.708 533.608 133.565C534.386 134.439 535.45 135.193 536.8 135.828C538.165 136.479 539.952 136.805 542.159 136.805C545.113 136.805 547.551 136.09 549.472 134.661C551.393 133.232 552.354 130.993 552.354 127.944V120.512H551.878C551.465 121.179 550.877 122.005 550.115 122.989C549.369 123.958 548.289 124.823 546.876 125.586C545.478 126.332 543.588 126.705 541.206 126.705C538.253 126.705 535.601 126.006 533.251 124.609C530.916 123.212 529.066 121.179 527.701 118.511C526.351 115.843 525.676 112.604 525.676 108.793C525.676 105.045 526.335 101.782 527.653 99.0026C528.971 96.2077 530.805 94.048 533.155 92.5235C535.506 90.9832 538.221 90.213 541.302 90.213C543.684 90.213 545.573 90.61 546.971 91.404C548.384 92.1821 549.464 93.0714 550.21 94.0718C550.973 95.0564 551.56 95.8663 551.973 96.5015H552.545V90.6894H557.976V128.325C557.976 131.469 557.261 134.026 555.832 135.995C554.419 137.98 552.513 139.433 550.115 140.354C547.733 141.291 545.081 141.759 542.159 141.759ZM541.969 121.655C544.224 121.655 546.129 121.139 547.685 120.107C549.242 119.075 550.425 117.59 551.235 115.653C552.045 113.715 552.449 111.397 552.449 108.697C552.449 106.061 552.052 103.735 551.258 101.718C550.464 99.7013 549.289 98.1212 547.733 96.9779C546.177 95.8345 544.255 95.2628 541.969 95.2628C539.587 95.2628 537.602 95.8663 536.014 97.0731C534.442 98.28 533.259 99.8998 532.465 101.932C531.686 103.965 531.297 106.22 531.297 108.697C531.297 111.238 531.694 113.485 532.488 115.438C533.298 117.376 534.489 118.9 536.061 120.012C537.649 121.107 539.618 121.655 541.969 121.655ZM573.887 105.267V127.277H568.266V90.6894H573.697V96.4062H574.173C575.031 94.5482 576.333 93.0555 578.08 91.928C579.827 90.7847 582.082 90.213 584.845 90.213C587.322 90.213 589.49 90.7212 591.347 91.7375C593.205 92.7379 594.651 94.2624 595.683 96.3109C596.715 98.3435 597.231 100.916 597.231 104.029V127.277H591.609V104.41C591.609 101.535 590.863 99.2963 589.37 97.6925C587.878 96.0727 585.829 95.2628 583.225 95.2628C581.43 95.2628 579.827 95.6519 578.413 96.43C577.016 97.2081 575.912 98.3435 575.102 99.8363C574.292 101.329 573.887 103.139 573.887 105.267ZM626.369 127.277V90.6894H631.99V127.277H626.369ZM629.227 84.5915C628.131 84.5915 627.187 84.2183 626.393 83.472C625.614 82.7256 625.225 81.8284 625.225 80.7803C625.225 79.7322 625.614 78.835 626.393 78.0886C627.187 77.3423 628.131 76.9691 629.227 76.9691C630.323 76.9691 631.26 77.3423 632.038 78.0886C632.832 78.835 633.229 79.7322 633.229 80.7803C633.229 81.8284 632.832 82.7256 632.038 83.472C631.26 84.2183 630.323 84.5915 629.227 84.5915ZM647.908 105.267V127.277H642.286V90.6894H647.717V96.4062H648.194C649.051 94.5482 650.353 93.0555 652.1 91.928C653.847 90.7847 656.102 90.213 658.865 90.213C661.342 90.213 663.51 90.7212 665.368 91.7375C667.226 92.7379 668.671 94.2624 669.703 96.3109C670.735 98.3435 671.252 100.916 671.252 104.029V127.277H665.63V104.41C665.63 101.535 664.884 99.2963 663.391 97.6925C661.898 96.0727 659.85 95.2628 657.245 95.2628C655.451 95.2628 653.847 95.6519 652.434 96.43C651.036 97.2081 649.933 98.3435 649.123 99.8363C648.313 101.329 647.908 103.139 647.908 105.267ZM708.679 127.277L697.531 90.6894H703.438L711.346 118.702H711.728L719.541 90.6894H725.543L733.261 118.606H733.642L741.55 90.6894H747.458L736.31 127.277H730.784L722.78 99.1693H722.208L714.205 127.277H708.679ZM754.889 127.277V90.6894H760.511V127.277H754.889ZM757.748 84.5915C756.652 84.5915 755.707 84.2183 754.913 83.472C754.135 82.7256 753.746 81.8284 753.746 80.7803C753.746 79.7322 754.135 78.835 754.913 78.0886C755.707 77.3423 756.652 76.9691 757.748 76.9691C758.843 76.9691 759.78 77.3423 760.559 78.0886C761.353 78.835 761.75 79.7322 761.75 80.7803C761.75 81.8284 761.353 82.7256 760.559 83.472C759.78 84.2183 758.843 84.5915 757.748 84.5915ZM786.719 90.6894V95.4534H767.758V90.6894H786.719ZM773.284 81.9237H778.906V116.796C778.906 118.384 779.136 119.575 779.597 120.369C780.073 121.147 780.676 121.671 781.407 121.941C782.153 122.195 782.939 122.322 783.765 122.322C784.384 122.322 784.893 122.291 785.29 122.227C785.687 122.148 786.004 122.084 786.242 122.036L787.386 127.086C787.005 127.229 786.473 127.372 785.79 127.515C785.107 127.674 784.241 127.753 783.193 127.753C781.605 127.753 780.049 127.412 778.525 126.729C777.016 126.046 775.762 125.006 774.761 123.609C773.777 122.211 773.284 120.448 773.284 118.321V81.9237ZM801.582 105.267V127.277H795.961V78.4936H801.582V96.4062H802.059C802.916 94.5165 804.203 93.0158 805.918 91.9042C807.649 90.7767 809.951 90.213 812.825 90.213C815.319 90.213 817.502 90.7132 819.376 91.7137C821.25 92.6982 822.703 94.2148 823.735 96.2633C824.783 98.2959 825.307 100.884 825.307 104.029V127.277H819.686V104.41C819.686 101.504 818.931 99.2566 817.423 97.6686C815.93 96.0648 813.858 95.2628 811.206 95.2628C809.364 95.2628 807.712 95.6519 806.251 96.43C804.806 97.2081 803.663 98.3435 802.821 99.8363C801.995 101.329 801.582 103.139 801.582 105.267ZM888.567 93.7384C888.043 92.1345 887.352 90.6973 886.495 89.4269C885.653 88.1407 884.645 87.0449 883.469 86.1398C882.31 85.2346 880.992 84.5438 879.515 84.0674C878.039 83.591 876.419 83.3529 874.656 83.3529C871.766 83.3529 869.138 84.0992 866.772 85.5919C864.406 87.0846 862.524 89.284 861.126 92.1901C859.729 95.0961 859.03 98.6611 859.03 102.885C859.03 107.109 859.737 110.674 861.15 113.58C862.564 116.486 864.477 118.686 866.891 120.179C869.305 121.671 872.02 122.418 875.037 122.418C877.832 122.418 880.294 121.822 882.421 120.631C884.565 119.424 886.233 117.725 887.424 115.534C888.63 113.326 889.234 110.73 889.234 107.744L891.044 108.126H876.371V102.885H894.951V108.126C894.951 112.143 894.093 115.637 892.378 118.606C890.679 121.576 888.329 123.879 885.327 125.514C882.342 127.134 878.912 127.944 875.037 127.944C870.718 127.944 866.923 126.927 863.651 124.895C860.396 122.862 857.855 119.972 856.029 116.224C854.219 112.477 853.313 108.03 853.313 102.885C853.313 99.0264 853.83 95.5566 854.862 92.4759C855.91 89.3793 857.387 86.7432 859.292 84.5677C861.198 82.3921 863.453 80.7247 866.057 79.5655C868.661 78.4062 871.528 77.8266 874.656 77.8266C877.229 77.8266 879.627 78.2157 881.85 78.9938C884.089 79.756 886.082 80.8438 887.829 82.2571C889.591 83.6546 891.06 85.3299 892.235 87.2831C893.41 89.2205 894.22 91.3722 894.665 93.7384H888.567ZM919.17 128.039C915.867 128.039 912.969 127.253 910.475 125.681C907.998 124.109 906.061 121.909 904.663 119.083C903.282 116.256 902.591 112.953 902.591 109.174C902.591 105.362 903.282 102.036 904.663 99.1931C906.061 96.3506 907.998 94.1433 910.475 92.5712C912.969 90.9991 915.867 90.213 919.17 90.213C922.473 90.213 925.363 90.9991 927.84 92.5712C930.333 94.1433 932.271 96.3506 933.652 99.1931C935.05 102.036 935.748 105.362 935.748 109.174C935.748 112.953 935.05 116.256 933.652 119.083C932.271 121.909 930.333 124.109 927.84 125.681C925.363 127.253 922.473 128.039 919.17 128.039ZM919.17 122.989C921.679 122.989 923.743 122.346 925.363 121.06C926.983 119.774 928.182 118.082 928.96 115.986C929.738 113.89 930.127 111.619 930.127 109.174C930.127 106.728 929.738 104.449 928.96 102.337C928.182 100.225 926.983 98.5182 925.363 97.2161C923.743 95.9139 921.679 95.2628 919.17 95.2628C916.661 95.2628 914.596 95.9139 912.976 97.2161C911.357 98.5182 910.158 100.225 909.38 102.337C908.602 104.449 908.212 106.728 908.212 109.174C908.212 111.619 908.602 113.89 909.38 115.986C910.158 118.082 911.357 119.774 912.976 121.06C914.596 122.346 916.661 122.989 919.17 122.989ZM959.193 128.039C955.89 128.039 952.992 127.253 950.499 125.681C948.022 124.109 946.084 121.909 944.687 119.083C943.305 116.256 942.614 112.953 942.614 109.174C942.614 105.362 943.305 102.036 944.687 99.1931C946.084 96.3506 948.022 94.1433 950.499 92.5712C952.992 90.9991 955.89 90.213 959.193 90.213C962.496 90.213 965.386 90.9991 967.864 92.5712C970.357 94.1433 972.294 96.3506 973.676 99.1931C975.073 102.036 975.772 105.362 975.772 109.174C975.772 112.953 975.073 116.256 973.676 119.083C972.294 121.909 970.357 124.109 967.864 125.681C965.386 127.253 962.496 128.039 959.193 128.039ZM959.193 122.989C961.702 122.989 963.767 122.346 965.386 121.06C967.006 119.774 968.205 118.082 968.983 115.986C969.761 113.89 970.15 111.619 970.15 109.174C970.15 106.728 969.761 104.449 968.983 102.337C968.205 100.225 967.006 98.5182 965.386 97.2161C963.767 95.9139 961.702 95.2628 959.193 95.2628C956.684 95.2628 954.62 95.9139 953 97.2161C951.38 98.5182 950.181 100.225 949.403 102.337C948.625 104.449 948.236 106.728 948.236 109.174C948.236 111.619 948.625 113.89 949.403 115.986C950.181 118.082 951.38 119.774 953 121.06C954.62 122.346 956.684 122.989 959.193 122.989ZM999.121 141.759C996.406 141.759 994.072 141.41 992.118 140.711C990.165 140.028 988.537 139.123 987.235 137.996C985.949 136.884 984.925 135.693 984.162 134.423L988.641 131.279C989.149 131.946 989.792 132.708 990.57 133.565C991.348 134.439 992.412 135.193 993.762 135.828C995.128 136.479 996.914 136.805 999.121 136.805C1002.08 136.805 1004.51 136.09 1006.43 134.661C1008.36 133.232 1009.32 130.993 1009.32 127.944V120.512H1008.84C1008.43 121.179 1007.84 122.005 1007.08 122.989C1006.33 123.958 1005.25 124.823 1003.84 125.586C1002.44 126.332 1000.55 126.705 998.169 126.705C995.215 126.705 992.563 126.006 990.213 124.609C987.878 123.212 986.028 121.179 984.663 118.511C983.313 115.843 982.638 112.604 982.638 108.793C982.638 105.045 983.297 101.782 984.615 99.0026C985.933 96.2077 987.767 94.048 990.117 92.5235C992.468 90.9832 995.183 90.213 998.264 90.213C1000.65 90.213 1002.54 90.61 1003.93 91.404C1005.35 92.1821 1006.43 93.0714 1007.17 94.0718C1007.93 95.0564 1008.52 95.8663 1008.94 96.5015H1009.51V90.6894H1014.94V128.325C1014.94 131.469 1014.22 134.026 1012.79 135.995C1011.38 137.98 1009.48 139.433 1007.08 140.354C1004.7 141.291 1002.04 141.759 999.121 141.759ZM998.931 121.655C1001.19 121.655 1003.09 121.139 1004.65 120.107C1006.2 119.075 1007.39 117.59 1008.2 115.653C1009.01 113.715 1009.41 111.397 1009.41 108.697C1009.41 106.061 1009.01 103.735 1008.22 101.718C1007.43 99.7013 1006.25 98.1212 1004.7 96.9779C1003.14 95.8345 1001.22 95.2628 998.931 95.2628C996.549 95.2628 994.564 95.8663 992.976 97.0731C991.404 98.28 990.221 99.8998 989.427 101.932C988.649 103.965 988.259 106.22 988.259 108.697C988.259 111.238 988.656 113.485 989.45 115.438C990.26 117.376 991.451 118.9 993.023 120.012C994.611 121.107 996.581 121.655 998.931 121.655ZM1030.85 78.4936V127.277H1025.23V78.4936H1030.85ZM1056.49 128.039C1052.96 128.039 1049.92 127.261 1047.36 125.705C1044.82 124.133 1042.86 121.941 1041.48 119.13C1040.11 116.304 1039.43 113.017 1039.43 109.269C1039.43 105.521 1040.11 102.218 1041.48 99.3599C1042.86 96.4856 1044.78 94.2465 1047.24 92.6426C1049.72 91.0229 1052.61 90.213 1055.91 90.213C1057.82 90.213 1059.7 90.5306 1061.56 91.1658C1063.42 91.801 1065.11 92.8332 1066.63 94.2624C1068.16 95.6757 1069.37 97.5495 1070.28 99.8839C1071.18 102.218 1071.64 105.093 1071.64 108.507V110.889H1043.43V106.029H1065.92C1065.92 103.965 1065.51 102.123 1064.68 100.503C1063.87 98.8835 1062.71 97.6051 1061.2 96.6682C1059.71 95.7313 1057.95 95.2628 1055.91 95.2628C1053.68 95.2628 1051.74 95.8186 1050.1 96.9302C1048.48 98.0259 1047.24 99.4551 1046.36 101.218C1045.49 102.98 1045.05 104.87 1045.05 106.887V110.126C1045.05 112.89 1045.53 115.232 1046.48 117.153C1047.45 119.059 1048.79 120.512 1050.51 121.512C1052.22 122.497 1054.21 122.989 1056.49 122.989C1057.96 122.989 1059.3 122.783 1060.49 122.37C1061.69 121.941 1062.73 121.306 1063.61 120.464C1064.48 119.607 1065.16 118.543 1065.63 117.272L1071.06 118.797C1070.49 120.639 1069.53 122.259 1068.18 123.656C1066.83 125.038 1065.16 126.118 1063.18 126.896C1061.19 127.658 1058.96 128.039 1056.49 128.039Z" fill="#020203"/>
<path d="M162.5 109.4C162.5 104.9 162.1 101.6 161.3 98.0999H109.5V118.6H139.9C139.3 123.7 136 131.3 128.6 136.5L128.5 137.2L144.9 149.9L146 150C156.5 140.4 162.5 126.2 162.5 109.4Z" fill="#4877BB"/>
<path d="M109.5 163.4C124.4 163.4 136.9 158.5 146 150L128.6 136.5C123.9 139.7 117.7 142 109.5 142C94.8998 142 82.4998 132.4 78.0998 119.1L77.4998 119.2L60.4998 132.4L60.2998 133C69.2998 151 87.9998 163.4 109.5 163.4Z" fill="#21A849"/>
<path d="M78.0999 119.1C76.8999 115.7 76.2999 112 76.2999 108.2C76.2999 104.4 76.9999 100.7 78.0999 97.2999V96.5999L60.8999 83.2L60.2999 83.4999C56.5999 90.9999 54.3999 99.3999 54.3999 108.3C54.3999 117.2 56.4999 125.6 60.2999 133.1L78.0999 119.1Z" fill="#FBBA10"/>
<path d="M109.5 74.3999C119.9 74.3999 126.8 78.8999 130.8 82.5999L146.4 67.3999C136.8 58.4999 124.4 53.0999 109.5 53.0999C87.8997 53.0999 69.2997 65.4999 60.1997 83.4999L77.9997 97.3999C82.5997 83.9999 94.8997 74.3999 109.5 74.3999Z" fill="#E73830"/>
</svg>
